<svg width="2800" height="3400" viewBox="0 0 2800 3400" fill="none" xmlns="http://www.w3.org/2000/svg">
<mask id="mask0_502_45" style="mask-type:alpha" maskUnits="userSpaceOnUse" x="0" y="0" width="2800" height="3400">
<path d="M2510.16 1633.39C2483.69 1627.92 2463.55 1583.23 2473.66 1555.74C2481.65 1534 2473.34 1453.93 2424.5 1437.06C2481.17 1376.45 2433.94 1244.57 2351.8 1244.57C2402.7 1172.85 2328.67 1043.86 2224.5 1082.69C2285.52 978.96 2169.69 867.018 2079.15 918.861C2119.93 819.167 1992.88 718.729 1910.36 789.94C1935.87 685.139 1786.45 616.862 1720.06 705.884C1720.06 594.84 1563.38 557.57 1513.12 646.832C1498.89 569.545 1454.93 560.849 1426.06 544.788C1405.38 533.282 1387.16 523.144 1382.42 499.879C1377.69 523.144 1359.47 533.282 1338.79 544.788C1309.91 560.849 1265.96 569.545 1251.72 646.832C1201.47 557.57 1044.79 594.84 1044.79 705.884C978.394 616.862 828.983 685.139 854.486 789.94C771.97 718.729 644.922 819.167 685.699 918.861C595.157 867.018 479.332 978.96 540.348 1082.69C436.182 1043.86 362.145 1172.85 413.045 1244.57C330.911 1244.57 283.677 1376.45 340.345 1437.06C285.233 1460.21 283.198 1534 291.191 1555.74C301.297 1583.23 281.157 1627.92 254.69 1633.39C271.472 1660.41 271.816 1694.97 252.645 1720.15C236.748 1739.17 222.767 1785.06 222.767 1807.99V3400H0V1807.99V0H2800V1807.99V3400H2542.08V1807.99C2542.08 1785.06 2528.1 1739.17 2512.2 1720.15C2493.03 1694.97 2493.38 1660.41 2510.16 1633.39Z" fill="#D9D9D9"/>
</mask>
<g mask="url(#mask0_502_45)">
<path d="M2473.66 1555.74C2463.55 1583.23 2483.69 1627.92 2510.16 1633.39C2493.37 1660.41 2493.03 1694.97 2512.2 1720.15C2528.1 1739.17 2542.08 1785.06 2542.08 1807.99V3405.14H2756.21V1807.99V-3.65527H-24V1807.99V3405.14H222.766V1807.99C222.766 1785.06 236.748 1739.17 252.645 1720.15C271.815 1694.97 271.471 1660.41 254.689 1633.39C281.156 1627.92 301.296 1583.23 291.191 1555.74C283.198 1534 285.233 1460.21 340.344 1437.06C283.676 1376.45 330.911 1244.57 413.045 1244.57C362.145 1172.85 436.181 1043.86 540.347 1082.69C479.331 978.961 595.156 867.019 685.698 918.861C644.921 819.167 771.97 718.729 854.485 789.94C828.982 685.139 978.393 616.862 1044.78 705.884C1044.78 594.839 1201.47 557.57 1251.72 646.832C1265.96 569.545 1309.91 560.849 1338.78 544.788C1359.47 533.282 1377.69 523.144 1382.42 499.879C1387.16 523.144 1405.38 533.282 1426.06 544.788C1454.93 560.849 1498.89 569.545 1513.12 646.832C1563.38 557.57 1720.06 594.839 1720.06 705.884C1786.45 616.862 1935.86 685.139 1910.36 789.94C1992.88 718.729 2119.92 819.168 2079.15 918.861C2169.69 867.019 2285.51 978.961 2224.5 1082.69C2328.67 1043.86 2402.7 1172.85 2351.8 1244.57C2433.93 1244.57 2481.17 1376.45 2424.5 1437.06C2473.34 1453.93 2481.65 1534 2473.66 1555.74Z" fill="#0F0808"/>
<g filter="url(#filter0_d_502_45)">
<path d="M2509.02 1547.77C2498.57 1576.19 2519.39 1622.4 2546.76 1628.06C2529.41 1655.99 2529.05 1691.73 2548.87 1717.76C2565.31 1737.43 2579.77 1784.88 2579.77 1808.58V3556H2806.17V1808.58V-64.6094H-24V1808.58V3556H181.653V1808.58C181.653 1784.88 196.11 1737.43 212.547 1717.76C232.369 1691.73 232.013 1655.99 214.661 1628.06C242.027 1622.4 262.852 1576.19 252.402 1547.77C244.138 1525.29 246.242 1448.99 303.226 1425.05C244.633 1362.39 293.472 1226.03 378.397 1226.03C325.767 1151.87 402.319 1018.49 510.024 1058.64C446.935 951.391 566.695 835.646 660.314 889.25C618.151 786.169 749.516 682.318 834.835 755.949C808.466 647.587 962.953 576.99 1031.6 669.037C1031.6 554.219 1193.6 515.684 1245.57 607.978C1260.29 528.066 1305.74 519.074 1335.59 502.468C1356.97 490.57 1375.82 480.089 1380.71 456.033C1385.6 480.089 1404.45 490.57 1425.83 502.468C1455.68 519.074 1501.13 528.066 1515.85 607.978C1567.82 515.684 1729.82 554.219 1729.82 669.037C1798.47 576.99 1952.95 647.587 1926.59 755.949C2011.9 682.318 2143.27 786.169 2101.11 889.25C2194.72 835.646 2314.49 951.391 2251.4 1058.64C2359.1 1018.49 2435.65 1151.87 2383.02 1226.03C2467.95 1226.03 2516.79 1362.39 2458.19 1425.05C2508.69 1442.5 2517.28 1525.29 2509.02 1547.77Z" fill="black"/>
<path d="M2509.02 1547.77C2498.57 1576.19 2519.39 1622.4 2546.76 1628.06C2529.41 1655.99 2529.05 1691.73 2548.87 1717.76C2565.31 1737.43 2579.77 1784.88 2579.77 1808.58V3556H2806.17V1808.58V-64.6094H-24V1808.58V3556H181.653V1808.58C181.653 1784.88 196.11 1737.43 212.547 1717.76C232.369 1691.73 232.013 1655.99 214.661 1628.06C242.027 1622.4 262.852 1576.19 252.402 1547.77C244.138 1525.29 246.242 1448.99 303.226 1425.05C244.633 1362.39 293.472 1226.03 378.397 1226.03C325.767 1151.87 402.319 1018.49 510.024 1058.64C446.935 951.391 566.695 835.646 660.314 889.25C618.151 786.169 749.516 682.318 834.835 755.949C808.466 647.587 962.953 576.99 1031.6 669.037C1031.6 554.219 1193.6 515.684 1245.57 607.978C1260.29 528.066 1305.74 519.074 1335.59 502.468C1356.97 490.57 1375.82 480.089 1380.71 456.033C1385.6 480.089 1404.45 490.57 1425.83 502.468C1455.68 519.074 1501.13 528.066 1515.85 607.978C1567.82 515.684 1729.82 554.219 1729.82 669.037C1798.47 576.99 1952.95 647.587 1926.59 755.949C2011.9 682.318 2143.27 786.169 2101.11 889.25C2194.72 835.646 2314.49 951.391 2251.4 1058.64C2359.1 1018.49 2435.65 1151.87 2383.02 1226.03C2467.95 1226.03 2516.79 1362.39 2458.19 1425.05C2508.69 1442.5 2517.28 1525.29 2509.02 1547.77Z" fill="url(#paint0_radial_502_45)"/>
</g>
</g>
<defs>
<filter id="filter0_d_502_45" x="-52" y="-118.609" width="2938.17" height="3728.61" filterUnits="userSpaceOnUse" color-interpolation-filters="sRGB">
<feFlood flood-opacity="0" result="BackgroundImageFix"/>
<feColorMatrix in="SourceAlpha" type="matrix" values="0 0 0 0 0 0 0 0 0 0 0 0 0 0 0 0 0 0 127 0" result="hardAlpha"/>
<feOffset dx="26"/>
<feGaussianBlur stdDeviation="27"/>
<feComposite in2="hardAlpha" operator="out"/>
<feColorMatrix type="matrix" values="0 0 0 0 0.154818 0 0 0 0 0.0663695 0 0 0 0 0.0663695 0 0 0 1 0"/>
<feBlend mode="screen" in2="BackgroundImageFix" result="effect1_dropShadow_502_45"/>
<feBlend mode="normal" in="SourceGraphic" in2="effect1_dropShadow_502_45" result="shape"/>
</filter>
<radialGradient id="paint0_radial_502_45" cx="0" cy="0" r="1" gradientUnits="userSpaceOnUse" gradientTransform="translate(1402.38 145.991) rotate(90) scale(788.053 2039.86)">
<stop stop-color="#1C1113"/>
<stop offset="1"/>
</radialGradient>
</defs>
</svg>
