<svg width="2692" height="2489" viewBox="0 0 2692 2489" fill="none" xmlns="http://www.w3.org/2000/svg">
<mask id="mask0_183_202" style="mask-type:alpha" maskUnits="userSpaceOnUse" x="0" y="-140" width="2706" height="2629">
<path d="M1331.94 363.82H2127.55H2503.18V1671.93H2705.72V-139.715H0.0766602V1671.93H160.704V363.82H536.338H1331.94Z" fill="#0D0706"/>
<path d="M2423.17 1419.68C2413.07 1447.17 2433.21 1491.87 2459.68 1497.33C2442.89 1524.35 2442.55 1558.91 2461.72 1584.09C2477.62 1603.11 2491.6 1649 2491.6 1671.93H2503.18V363.82H2127.55H1331.94C1336.67 387.085 1354.9 397.222 1375.58 408.729C1404.45 424.789 1448.4 433.485 1462.64 510.772C1512.9 421.51 1669.58 458.78 1669.58 569.824C1735.97 480.803 1885.38 549.079 1859.88 653.88C1942.4 582.669 2069.44 683.108 2028.67 782.802C2119.21 730.959 2235.03 842.901 2174.02 946.628C2278.18 907.8 2352.22 1036.79 2301.32 1108.51C2383.45 1108.51 2430.69 1240.39 2374.02 1301C2422.86 1317.87 2431.17 1397.94 2423.17 1419.68Z" fill="#0D0706"/>
<path d="M204.208 1497.33C230.675 1491.87 250.815 1447.17 240.71 1419.68C232.717 1397.94 234.752 1324.15 289.863 1301C233.195 1240.39 280.43 1108.51 362.564 1108.51C311.664 1036.79 385.7 907.8 489.866 946.628C428.85 842.901 544.675 730.959 635.217 782.802C594.44 683.108 721.489 582.669 804.004 653.88C778.501 549.079 927.912 480.803 994.303 569.824C994.303 458.78 1150.98 421.51 1201.24 510.772C1215.48 433.485 1259.43 424.789 1288.3 408.729C1308.99 397.222 1327.21 387.085 1331.94 363.82H536.338H160.704V1671.93H172.285C172.285 1649 186.267 1603.11 202.164 1584.09C221.334 1558.91 220.99 1524.35 204.208 1497.33Z" fill="#0D0706"/>
<path d="M172.285 1671.93H160.704H0.0766602V2488.53H172.285V1671.93Z" fill="#0D0706"/>
<path d="M2503.18 1671.93H2491.6V2488.53H2705.72V1671.93H2503.18Z" fill="#0D0706"/>
</mask>
<g mask="url(#mask0_183_202)">
<path d="M1331.94 363.82H2127.55H2503.18V1671.93H2705.72V-139.715H0.0766602V1671.93H160.704V363.82H536.338H1331.94Z" fill="#0F0808"/>
<path d="M2423.17 1419.68C2413.07 1447.17 2433.21 1491.87 2459.68 1497.33C2442.89 1524.35 2442.55 1558.91 2461.72 1584.09C2477.62 1603.11 2491.6 1649 2491.6 1671.93H2503.18V363.82H2127.55H1331.94C1336.67 387.085 1354.9 397.222 1375.58 408.729C1404.45 424.789 1448.4 433.485 1462.64 510.772C1512.9 421.51 1669.58 458.78 1669.58 569.824C1735.97 480.803 1885.38 549.079 1859.88 653.88C1942.4 582.669 2069.44 683.108 2028.67 782.802C2119.21 730.959 2235.03 842.901 2174.02 946.628C2278.18 907.8 2352.22 1036.79 2301.32 1108.51C2383.45 1108.51 2430.69 1240.39 2374.02 1301C2422.86 1317.87 2431.17 1397.94 2423.17 1419.68Z" fill="#0F0808"/>
<path d="M204.208 1497.33C230.675 1491.87 250.815 1447.17 240.71 1419.68C232.717 1397.94 234.752 1324.15 289.863 1301C233.195 1240.39 280.43 1108.51 362.564 1108.51C311.664 1036.79 385.7 907.8 489.866 946.628C428.85 842.901 544.675 730.959 635.217 782.802C594.44 683.108 721.489 582.669 804.004 653.88C778.501 549.079 927.912 480.803 994.303 569.824C994.303 458.78 1150.98 421.51 1201.24 510.772C1215.48 433.485 1259.43 424.789 1288.3 408.729C1308.99 397.222 1327.21 387.085 1331.94 363.82H536.338H160.704V1671.93H172.285C172.285 1649 186.267 1603.11 202.164 1584.09C221.334 1558.91 220.99 1524.35 204.208 1497.33Z" fill="#0F0808"/>
<path d="M172.285 1671.93H160.704H0.0766602V2488.53H172.285V1671.93Z" fill="#0F0808"/>
<path d="M2503.18 1671.93H2491.6V2488.53H2705.72V1671.93H2503.18Z" fill="#0F0808"/>
<g filter="url(#filter0_d_183_202)">
<path d="M1331.23 319.973H2153.86H2542.26V1672.52H2751.69V-200.669H-45.8867V1672.52H120.198V319.973H508.595H1331.23Z" fill="black"/>
<path d="M2459.54 1411.71C2449.09 1440.13 2469.91 1486.34 2497.28 1492C2479.93 1519.93 2479.57 1555.67 2499.39 1581.7C2515.83 1601.37 2530.29 1648.82 2530.29 1672.52H2542.26V319.973H2153.86H1331.23C1336.12 344.029 1354.96 354.511 1376.35 366.408C1406.2 383.014 1451.65 392.006 1466.37 471.919C1518.33 379.624 1680.34 418.16 1680.34 532.977C1748.99 440.931 1903.47 511.527 1877.1 619.889C1962.42 546.258 2093.79 650.11 2051.63 753.19C2145.24 699.586 2265 815.332 2201.92 922.583C2309.62 882.435 2386.17 1015.81 2333.54 1089.97C2418.47 1089.97 2467.31 1226.33 2408.71 1288.99C2459.21 1306.44 2467.8 1389.23 2459.54 1411.71Z" fill="black"/>
<path d="M165.18 1492C192.547 1486.34 213.371 1440.13 202.922 1411.71C194.658 1389.23 196.761 1312.93 253.746 1288.99C195.152 1226.33 243.992 1089.97 328.916 1089.97C276.287 1015.81 352.839 882.435 460.544 922.583C397.455 815.332 517.215 699.586 610.833 753.19C568.67 650.11 700.036 546.258 785.354 619.889C758.985 511.527 913.473 440.931 982.12 532.977C982.12 418.16 1144.12 379.624 1196.09 471.919C1210.81 392.006 1256.26 383.014 1286.11 366.408C1307.49 354.511 1326.34 344.029 1331.23 319.973H508.595H120.198V1672.52H132.173C132.173 1648.82 146.629 1601.37 163.066 1581.7C182.888 1555.67 182.533 1519.93 165.18 1492Z" fill="black"/>
<path d="M132.173 1672.52H120.198H-45.8867V2516.87H132.173V1672.52Z" fill="black"/>
<path d="M2542.26 1672.52H2530.29V2516.87H2751.69V1672.52H2542.26Z" fill="black"/>
</g>
</g>
<defs>
<filter id="filter0_d_183_202" x="-73.8867" y="-254.669" width="2905.57" height="2825.54" filterUnits="userSpaceOnUse" color-interpolation-filters="sRGB">
<feFlood flood-opacity="0" result="BackgroundImageFix"/>
<feColorMatrix in="SourceAlpha" type="matrix" values="0 0 0 0 0 0 0 0 0 0 0 0 0 0 0 0 0 0 127 0" result="hardAlpha"/>
<feOffset dx="26"/>
<feGaussianBlur stdDeviation="27"/>
<feComposite in2="hardAlpha" operator="out"/>
<feColorMatrix type="matrix" values="0 0 0 0 0.154818 0 0 0 0 0.0663695 0 0 0 0 0.0663695 0 0 0 1 0"/>
<feBlend mode="screen" in2="BackgroundImageFix" result="effect1_dropShadow_183_202"/>
<feBlend mode="normal" in="SourceGraphic" in2="effect1_dropShadow_183_202" result="shape"/>
</filter>
</defs>
</svg>
