<svg width="3250" height="3450" viewBox="0 0 3250 3450" fill="none" xmlns="http://www.w3.org/2000/svg">
<mask id="mask0_502_45" style="mask-type:alpha" maskUnits="userSpaceOnUse" x="0" y="0" width="3250" height="3450">
<path d="M2760.16 1683.39C2733.69 1677.92 2713.55 1633.23 2723.66 1605.74C2731.65 1584 2723.34 1503.93 2674.5 1487.06C2731.17 1426.45 2683.94 1294.57 2601.8 1294.57C2652.7 1222.85 2578.67 1093.86 2474.5 1132.69C2535.52 1028.96 2419.69 917.019 2329.15 968.862C2369.93 869.168 2242.88 768.729 2160.36 839.94C2185.87 735.14 2036.45 666.863 1970.06 755.884C1970.06 644.84 1813.38 607.57 1763.12 696.832C1748.89 619.546 1704.93 610.849 1676.06 594.789C1655.38 583.282 1637.16 573.145 1632.42 549.88C1627.69 573.145 1609.47 583.282 1588.78 594.789C1559.91 610.849 1515.96 619.546 1501.72 696.832C1451.47 607.57 1294.79 644.84 1294.79 755.884C1228.39 666.863 1078.98 735.14 1104.49 839.94C1021.97 768.729 894.921 869.168 935.699 968.862C845.156 917.019 729.331 1028.96 790.347 1132.69C686.181 1093.86 612.145 1222.85 663.045 1294.57C580.911 1294.57 533.677 1426.45 590.345 1487.06C535.233 1510.21 533.198 1584 541.191 1605.74C551.297 1633.23 531.157 1677.92 504.689 1683.39C521.472 1710.41 521.816 1744.97 502.645 1770.15C486.748 1789.17 472.766 1835.06 472.766 1857.99V3450H0V1857.99V0H3250V1857.99V3450H2792.08V1857.99C2792.08 1835.06 2778.1 1789.17 2762.2 1770.15C2743.03 1744.97 2743.38 1710.41 2760.16 1683.39Z" fill="#D9D9D9"/>
</mask>
<g mask="url(#mask0_502_45)">
<path d="M2723.66 1605.74C2713.55 1633.23 2733.69 1677.93 2760.16 1683.39C2743.37 1710.41 2743.03 1744.97 2762.2 1770.15C2778.1 1789.17 2792.08 1835.06 2792.08 1857.99V3455.14H3006.21V1857.99V46.3457H226V1857.99V3455.14H472.766V1857.99C472.766 1835.06 486.748 1789.17 502.645 1770.15C521.815 1744.97 521.471 1710.41 504.689 1683.39C531.156 1677.93 551.296 1633.23 541.191 1605.74C533.198 1584 535.233 1510.21 590.344 1487.06C533.676 1426.45 580.911 1294.57 663.045 1294.57C612.145 1222.85 686.181 1093.86 790.347 1132.69C729.331 1028.96 845.156 917.02 935.698 968.862C894.921 869.168 1021.97 768.73 1104.48 839.941C1078.98 735.14 1228.39 666.863 1294.78 755.885C1294.78 644.84 1451.47 607.571 1501.72 696.833C1515.96 619.546 1559.91 610.85 1588.78 594.789C1609.47 583.283 1627.69 573.145 1632.42 549.88C1637.16 573.145 1655.38 583.283 1676.06 594.789C1704.93 610.85 1748.89 619.546 1763.12 696.833C1813.38 607.571 1970.06 644.84 1970.06 755.885C2036.45 666.863 2185.86 735.14 2160.36 839.941C2242.88 768.73 2369.92 869.169 2329.15 968.862C2419.69 917.02 2535.51 1028.96 2474.5 1132.69C2578.67 1093.86 2652.7 1222.85 2601.8 1294.57C2683.93 1294.57 2731.17 1426.45 2674.5 1487.06C2723.34 1503.94 2731.65 1584 2723.66 1605.74Z" fill="#0F0808"/>
<g filter="url(#filter0_d_502_45)">
<path d="M2759.02 1597.77C2748.57 1626.19 2769.39 1672.41 2796.76 1678.06C2779.41 1705.99 2779.05 1741.73 2798.87 1767.76C2815.31 1787.43 2829.77 1834.88 2829.77 1858.58V3606H3699.5V1858.58V-14.6084H-454.5V1858.58V3606H431.653V1858.58C431.653 1834.88 446.109 1787.43 462.547 1767.76C482.369 1741.73 482.013 1705.99 464.661 1678.06C492.027 1672.41 512.851 1626.19 502.402 1597.77C494.138 1575.29 496.242 1498.99 553.226 1475.05C494.633 1412.39 543.472 1276.03 628.396 1276.03C575.767 1201.87 652.319 1068.5 760.024 1108.64C696.935 1001.39 816.695 885.647 910.313 939.251C868.151 836.17 999.516 732.319 1084.83 805.95C1058.47 697.588 1212.95 626.991 1281.6 719.038C1281.6 604.22 1443.6 565.685 1495.57 657.979C1510.29 578.067 1555.74 569.075 1585.59 552.469C1606.97 540.571 1625.82 530.089 1630.71 506.034C1635.6 530.089 1654.44 540.571 1675.83 552.469C1705.68 569.075 1751.13 578.067 1765.85 657.979C1817.82 565.685 1979.82 604.22 1979.82 719.038C2048.47 626.991 2202.95 697.588 2176.59 805.95C2261.9 732.319 2393.27 836.17 2351.11 939.251C2444.72 885.647 2564.48 1001.39 2501.4 1108.64C2609.1 1068.5 2685.65 1201.87 2633.02 1276.03C2717.95 1276.03 2766.79 1412.39 2708.19 1475.05C2758.69 1492.5 2767.28 1575.29 2759.02 1597.77Z" fill="black"/>
</g>
</g>
<defs>
<filter id="filter0_d_502_45" x="-482.5" y="-68.6084" width="4262" height="3728.61" filterUnits="userSpaceOnUse" color-interpolation-filters="sRGB">
<feFlood flood-opacity="0" result="BackgroundImageFix"/>
<feColorMatrix in="SourceAlpha" type="matrix" values="0 0 0 0 0 0 0 0 0 0 0 0 0 0 0 0 0 0 127 0" result="hardAlpha"/>
<feOffset dx="26"/>
<feGaussianBlur stdDeviation="27"/>
<feComposite in2="hardAlpha" operator="out"/>
<feColorMatrix type="matrix" values="0 0 0 0 0.154818 0 0 0 0 0.0663695 0 0 0 0 0.0663695 0 0 0 1 0"/>
<feBlend mode="screen" in2="BackgroundImageFix" result="effect1_dropShadow_502_45"/>
<feBlend mode="normal" in="SourceGraphic" in2="effect1_dropShadow_502_45" result="shape"/>
</filter>
</defs>
</svg>
