<svg width="3250" height="3400" viewBox="0 0 3250 3400" fill="none" xmlns="http://www.w3.org/2000/svg">
<mask id="mask0_502_45" style="mask-type:alpha" maskUnits="userSpaceOnUse" x="0" y="0" width="3250" height="3400">
<path d="M2760.16 1633.39C2733.69 1627.92 2713.55 1583.23 2723.66 1555.74C2731.65 1534 2723.34 1453.93 2674.5 1437.06C2731.17 1376.45 2683.94 1244.57 2601.8 1244.57C2652.7 1172.85 2578.67 1043.86 2474.5 1082.69C2535.52 978.961 2419.69 867.019 2329.15 918.862C2369.93 819.168 2242.88 718.729 2160.36 789.94C2185.87 685.14 2036.45 616.863 1970.06 705.884C1970.06 594.84 1813.38 557.57 1763.12 646.832C1748.89 569.546 1704.93 560.849 1676.06 544.789C1655.38 533.282 1637.16 523.145 1632.42 499.88C1627.69 523.145 1609.47 533.282 1588.78 544.789C1559.91 560.849 1515.96 569.546 1501.72 646.832C1451.47 557.57 1294.79 594.84 1294.79 705.884C1228.39 616.863 1078.98 685.14 1104.49 789.94C1021.97 718.729 894.921 819.168 935.699 918.862C845.156 867.019 729.331 978.961 790.347 1082.69C686.181 1043.86 612.145 1172.85 663.045 1244.57C580.911 1244.57 533.677 1376.45 590.345 1437.06C535.233 1460.21 533.198 1534 541.191 1555.74C551.297 1583.23 531.157 1627.92 504.689 1633.39C521.472 1660.41 521.816 1694.97 502.645 1720.15C486.748 1739.17 472.766 1785.06 472.766 1807.99V3400H0V1807.99V0L3250 0.000732422V1807.99V3400H2792.08V1807.99C2792.08 1785.06 2778.1 1739.17 2762.2 1720.15C2743.03 1694.97 2743.38 1660.41 2760.16 1633.39Z" fill="#D9D9D9"/>
</mask>
<g mask="url(#mask0_502_45)">
<path d="M2723.66 1555.74C2713.55 1583.23 2733.69 1627.93 2760.16 1633.39C2743.37 1660.41 2743.03 1694.97 2762.2 1720.15C2778.1 1739.17 2792.08 1785.06 2792.08 1807.99V3405.14H3006.21V1807.99V-3.6543H226V1807.99V3405.14H472.766V1807.99C472.766 1785.06 486.748 1739.17 502.645 1720.15C521.815 1694.97 521.471 1660.41 504.689 1633.39C531.156 1627.93 551.296 1583.23 541.191 1555.74C533.198 1534 535.233 1460.21 590.344 1437.06C533.676 1376.45 580.911 1244.57 663.045 1244.57C612.145 1172.85 686.181 1043.86 790.347 1082.69C729.331 978.962 845.156 867.02 935.698 918.862C894.921 819.168 1021.97 718.73 1104.48 789.941C1078.98 685.14 1228.39 616.863 1294.78 705.885C1294.78 594.84 1451.47 557.571 1501.72 646.833C1515.96 569.546 1559.91 560.85 1588.78 544.789C1609.47 533.283 1627.69 523.145 1632.42 499.88C1637.16 523.145 1655.38 533.283 1676.06 544.789C1704.93 560.85 1748.89 569.546 1763.12 646.833C1813.38 557.571 1970.06 594.84 1970.06 705.885C2036.45 616.863 2185.86 685.14 2160.36 789.941C2242.88 718.73 2369.92 819.169 2329.15 918.862C2419.69 867.02 2535.51 978.962 2474.5 1082.69C2578.67 1043.86 2652.7 1172.85 2601.8 1244.57C2683.93 1244.57 2731.17 1376.45 2674.5 1437.06C2723.34 1453.94 2731.65 1534 2723.66 1555.74Z" fill="#0F0808"/>
<g filter="url(#filter0_d_502_45)">
<path d="M2759.02 1547.77C2748.57 1576.19 2769.39 1622.41 2796.76 1628.06C2779.41 1655.99 2779.05 1691.73 2798.87 1717.76C2815.31 1737.43 2829.77 1784.88 2829.77 1808.58V3556H3699.5V1808.58V-64.6084H-454.5V1808.58V3556H431.653V1808.58C431.653 1784.88 446.109 1737.43 462.547 1717.76C482.369 1691.73 482.013 1655.99 464.661 1628.06C492.027 1622.41 512.851 1576.19 502.402 1547.77C494.138 1525.29 496.242 1448.99 553.226 1425.05C494.633 1362.39 543.472 1226.03 628.396 1226.03C575.767 1151.87 652.319 1018.5 760.024 1058.64C696.935 951.392 816.695 835.647 910.313 889.251C868.151 786.17 999.516 682.319 1084.83 755.95C1058.47 647.588 1212.95 576.991 1281.6 669.038C1281.6 554.22 1443.6 515.685 1495.57 607.979C1510.29 528.067 1555.74 519.075 1585.59 502.469C1606.97 490.571 1625.82 480.089 1630.71 456.034C1635.6 480.089 1654.44 490.571 1675.83 502.469C1705.68 519.075 1751.13 528.067 1765.85 607.979C1817.82 515.685 1979.82 554.22 1979.82 669.038C2048.47 576.991 2202.95 647.588 2176.59 755.95C2261.9 682.319 2393.27 786.17 2351.11 889.251C2444.72 835.647 2564.48 951.392 2501.4 1058.64C2609.1 1018.5 2685.65 1151.87 2633.02 1226.03C2717.95 1226.03 2766.79 1362.39 2708.19 1425.05C2758.69 1442.5 2767.28 1525.29 2759.02 1547.77Z" fill="black"/>
<path d="M2759.02 1547.77C2748.57 1576.19 2769.39 1622.41 2796.76 1628.06C2779.41 1655.99 2779.05 1691.73 2798.87 1717.76C2815.31 1737.43 2829.77 1784.88 2829.77 1808.58V3556H3699.5V1808.58V-64.6084H-454.5V1808.58V3556H431.653V1808.58C431.653 1784.88 446.109 1737.43 462.547 1717.76C482.369 1691.73 482.013 1655.99 464.661 1628.06C492.027 1622.41 512.851 1576.19 502.402 1547.77C494.138 1525.29 496.242 1448.99 553.226 1425.05C494.633 1362.39 543.472 1226.03 628.396 1226.03C575.767 1151.87 652.319 1018.5 760.024 1058.64C696.935 951.392 816.695 835.647 910.313 889.251C868.151 786.17 999.516 682.319 1084.83 755.95C1058.47 647.588 1212.95 576.991 1281.6 669.038C1281.6 554.22 1443.6 515.685 1495.57 607.979C1510.29 528.067 1555.74 519.075 1585.59 502.469C1606.97 490.571 1625.82 480.089 1630.71 456.034C1635.6 480.089 1654.44 490.571 1675.83 502.469C1705.68 519.075 1751.13 528.067 1765.85 607.979C1817.82 515.685 1979.82 554.22 1979.82 669.038C2048.47 576.991 2202.95 647.588 2176.59 755.95C2261.9 682.319 2393.27 786.17 2351.11 889.251C2444.72 835.647 2564.48 951.392 2501.4 1058.64C2609.1 1018.5 2685.65 1151.87 2633.02 1226.03C2717.95 1226.03 2766.79 1362.39 2708.19 1425.05C2758.69 1442.5 2767.28 1525.29 2759.02 1547.77Z" fill="url(#paint0_radial_502_45)"/>
</g>
</g>
<defs>
<filter id="filter0_d_502_45" x="-482.5" y="-118.608" width="4262" height="3728.61" filterUnits="userSpaceOnUse" color-interpolation-filters="sRGB">
<feFlood flood-opacity="0" result="BackgroundImageFix"/>
<feColorMatrix in="SourceAlpha" type="matrix" values="0 0 0 0 0 0 0 0 0 0 0 0 0 0 0 0 0 0 127 0" result="hardAlpha"/>
<feOffset dx="26"/>
<feGaussianBlur stdDeviation="27"/>
<feComposite in2="hardAlpha" operator="out"/>
<feColorMatrix type="matrix" values="0 0 0 0 0.154818 0 0 0 0 0.0663695 0 0 0 0 0.0663695 0 0 0 1 0"/>
<feBlend mode="screen" in2="BackgroundImageFix" result="effect1_dropShadow_502_45"/>
<feBlend mode="normal" in="SourceGraphic" in2="effect1_dropShadow_502_45" result="shape"/>
</filter>
<radialGradient id="paint0_radial_502_45" cx="0" cy="0" r="1" gradientUnits="userSpaceOnUse" gradientTransform="translate(1652.38 145.992) rotate(90) scale(788.053 2039.86)">
<stop stop-color="#1C1113"/>
<stop offset="1"/>
</radialGradient>
</defs>
</svg>
